<svg width="24" height="24" viewBox="0 0 24 24" fill="none" xmlns="http://www.w3.org/2000/svg">
<g clip-path="url(#clip0_1_395)">
<path d="M23.911 11.7161C23.722 11.4411 19.18 5 11.9999 5C5.83875 5 0.348667 11.4041 0.117664 11.6771C-0.039323 11.8631 -0.039323 12.1361 0.117664 12.3231C0.348667 12.5961 5.83875 19.0002 11.9999 19.0002C18.161 19.0002 23.651 12.5961 23.882 12.3231C24.027 12.1511 24.04 11.9021 23.911 11.7161ZM11.9999 18.0002C7.0608 18.0002 2.3647 13.2902 1.17171 12.0001C2.36273 10.7091 7.05382 6.00005 11.9999 6.00005C17.7789 6.00005 21.858 10.7031 22.854 11.9731C21.704 13.2221 16.9809 18.0002 11.9999 18.0002Z" fill="#3C3C3C"/>
<path d="M12.0001 8C9.79411 8 8.00008 9.79403 8.00008 12.0001C8.00008 14.2061 9.79411 16.0001 12.0001 16.0001C14.2062 16.0001 16.0002 14.2061 16.0002 12.0001C16.0002 9.79403 14.2062 8 12.0001 8ZM12.0001 15.0002C10.3461 15.0002 9.00008 13.6541 9.00008 12.0001C9.00008 10.3461 10.3461 9.00005 12.0001 9.00005C13.6541 9.00005 15.0002 10.3461 15.0002 12.0001C15.0002 13.6541 13.6541 15.0002 12.0001 15.0002Z" fill="#3C3C3C"/>
</g>
<defs>
<clipPath id="clip0_1_395">
<rect width="24" height="24" fill="white"/>
</clipPath>
</defs>
</svg>
