<svg width="24" height="24" viewBox="0 0 24 24" fill="none" xmlns="http://www.w3.org/2000/svg">
<g clip-path="url(#clip0_1_54602)">
<path d="M23.911 11.9349C23.722 11.6599 19.18 5.21875 11.9999 5.21875C5.83877 5.21875 0.348683 11.6229 0.117679 11.8959C-0.0393077 12.0819 -0.0393077 12.3549 0.117679 12.5419C0.348683 12.8149 5.83877 19.219 11.9999 19.219C18.161 19.219 23.651 12.8149 23.882 12.5419C24.0271 12.3699 24.04 12.1209 23.911 11.9349ZM11.9999 18.219C7.06082 18.219 2.36471 13.5089 1.17173 12.2189C2.36274 10.9279 7.05383 6.2188 11.9999 6.2188C17.779 6.2188 21.858 10.9219 22.854 12.1919C21.704 13.4409 16.9809 18.219 11.9999 18.219Z" fill="#3C3C3C"/>
<path d="M12.0001 8.34766C9.79412 8.34766 8.00009 10.1417 8.00009 12.3477C8.00009 14.5537 9.79412 16.3478 12.0001 16.3478C14.2062 16.3478 16.0002 14.5537 16.0002 12.3477C16.0002 10.1417 14.2062 8.34766 12.0001 8.34766ZM12.0001 15.3478C10.3461 15.3478 9.00009 14.0018 9.00009 12.3478C9.00009 10.6937 10.3461 9.3477 12.0001 9.3477C13.6542 9.3477 15.0002 10.6937 15.0002 12.3478C15.0002 14.0018 13.6542 15.3478 12.0001 15.3478Z" fill="#3C3C3C"/>
<path d="M4.17389 19L19.8261 4" stroke="#3C3C3C" stroke-linecap="round"/>
</g>
<defs>
<clipPath id="clip0_1_54602">
<rect width="24" height="24" fill="white"/>
</clipPath>
</defs>
</svg>
